<?xml version="1.0" standalone="no"?>
<!DOCTYPE svg PUBLIC "-//W3C//DTD SVG 20010904//EN"
 "http://www.w3.org/TR/2001/REC-SVG-20010904/DTD/svg10.dtd">
<svg version="1.0" xmlns="http://www.w3.org/2000/svg"
 width="120.000000pt" height="120.000000pt" viewBox="0 0 1280.000000 1234.000000"
 preserveAspectRatio="xMidYMid meet">
<metadata>
Created by potrace 1.15, written by Peter Selinger 2001-2017
</metadata>
<g transform="translate(0.000000,1234.000000) scale(0.100000,-0.100000)"
fill="#000000" stroke="none">
<path d="M7350 12320 c-41 -11 -138 -24 -216 -29 -89 -6 -178 -19 -242 -35
-316 -81 -683 -256 -1061 -509 -218 -146 -251 -157 -501 -177 -168 -14 -196
-19 -345 -65 -156 -49 -191 -55 -333 -60 -121 -5 -125 -5 -88 10 43 17 66 33
66 46 0 20 -66 47 -139 59 -136 21 -200 77 -224 197 -11 55 -18 66 -53 92 -39
29 -40 32 -52 117 -7 47 -11 89 -8 91 3 3 22 -4 42 -16 20 -12 38 -20 40 -18
2 2 7 42 10 90 l7 86 -36 36 c-45 45 -92 47 -168 7 -43 -22 -65 -44 -109 -107
-30 -43 -67 -87 -82 -98 -24 -18 -32 -19 -67 -8 -60 17 -94 52 -140 139 -51
100 -73 121 -58 58 14 -64 7 -76 -50 -76 l-47 0 139 -95 c76 -52 132 -95 123
-95 -9 0 -215 27 -459 60 -243 33 -444 58 -447 56 -2 -3 18 -20 45 -40 94 -68
260 -118 539 -161 201 -31 244 -41 244 -59 0 -22 -39 -42 -221 -111 -210 -80
-326 -135 -357 -168 l-24 -25 70 13 c140 27 298 83 582 205 181 78 233 85 314
46 70 -34 166 -137 166 -177 0 -23 -7 -30 -42 -43 -24 -9 -104 -25 -179 -36
-332 -48 -615 -130 -669 -195 -12 -14 -11 -16 11 -11 13 3 56 8 94 11 39 4
142 15 230 25 88 11 246 29 350 40 355 38 377 26 179 -101 -342 -220 -461
-353 -683 -769 -4 -8 -19 -22 -33 -29 -24 -14 -44 -11 -219 27 -268 58 -321
65 -488 60 -129 -4 -154 -8 -216 -32 -76 -30 -88 -30 -265 9 -127 28 -304 17
-660 -41 -289 -47 -322 -57 -272 -80 9 -5 199 -11 422 -14 437 -5 437 -5 175
-45 -216 -33 -528 -137 -780 -260 -169 -83 -512 -304 -494 -319 2 -1 267 80
589 181 322 100 589 182 594 180 5 -2 -23 -32 -61 -68 -56 -51 -108 -84 -259
-163 -104 -55 -218 -118 -254 -141 -64 -41 -166 -132 -158 -141 3 -2 60 12
129 32 68 20 300 85 514 145 215 60 396 112 403 114 26 9 -8 -32 -137 -168
-72 -75 -149 -160 -172 -189 -47 -59 -102 -163 -97 -183 4 -20 241 127 433
270 88 65 229 179 313 253 84 74 155 132 157 131 2 -2 32 -85 68 -184 56 -157
97 -310 86 -319 -2 -2 -71 -29 -154 -61 -133 -52 -207 -88 -150 -72 82 23 487
57 795 68 190 6 365 13 390 16 l45 5 -40 -36 -40 -37 -202 3 c-152 3 -203 0
-203 -8 0 -8 26 -15 68 -19 37 -4 85 -10 107 -14 l40 -7 -105 -38 c-250 -92
-482 -213 -770 -404 -203 -135 -324 -245 -364 -332 -14 -30 -23 -56 -21 -58 2
-2 108 54 236 125 189 104 1158 585 1166 579 2 -1 -2 -18 -8 -37 -27 -93 -39
-194 -40 -331 0 -130 12 -295 27 -368 l6 -25 30 35 c16 19 60 96 97 170 117
237 149 274 251 304 68 19 290 46 388 46 58 0 74 -3 79 -17 9 -24 -31 -52
-211 -145 -348 -179 -579 -367 -676 -550 -26 -48 -29 -58 -14 -50 11 5 132 69
269 143 216 115 815 402 823 394 1 -1 -63 -118 -143 -260 l-146 -259 -29 -185
c-17 -102 -33 -197 -36 -211 l-6 -25 32 30 c44 41 105 129 185 265 47 80 90
137 139 185 78 78 144 123 151 102 2 -6 11 -68 20 -137 9 -69 19 -134 22 -145
4 -15 -2 -12 -23 12 -25 27 -39 33 -101 42 -39 6 -78 11 -85 11 -7 0 35 -47
93 -103 l106 -102 47 -225 c26 -124 63 -270 83 -325 l35 -100 8 -267 c5 -147
12 -298 15 -335 6 -61 2 -84 -37 -223 l-44 -156 17 -57 c16 -55 16 -64 -7
-241 -26 -207 -63 -340 -93 -332 -9 3 -83 19 -166 36 -129 27 -208 53 -238 80
-4 3 74 35 173 70 99 34 178 65 176 67 -10 10 -314 -19 -451 -42 -189 -32
-357 -71 -411 -95 -35 -15 -49 -28 -62 -60 -19 -44 -35 -49 -81 -25 -39 20
-108 134 -174 286 -13 30 -45 78 -70 106 -53 61 -70 106 -70 188 0 65 18 111
62 158 l26 29 -25 -7 c-90 -21 -115 -21 -165 2 -27 12 -51 21 -53 19 -2 -2 15
-34 38 -70 33 -53 47 -89 65 -171 12 -58 20 -105 16 -104 -3 0 -33 32 -66 70
-50 58 -220 193 -379 301 -16 11 30 111 113 242 64 102 86 149 147 320 39 111
97 259 128 330 31 71 55 130 53 132 -1 2 -67 -52 -146 -119 l-144 -122 -117
-214 -118 -214 -7 -138 c-4 -77 -8 -139 -10 -139 -2 0 -165 116 -362 258 -197
142 -364 262 -371 266 -29 17 17 -51 90 -134 142 -162 230 -236 506 -422 97
-65 172 -118 168 -118 -4 0 -85 22 -179 49 -341 98 -600 155 -872 192 -114 16
-222 22 -455 25 -168 2 -300 2 -295 -1 15 -7 572 -124 1000 -211 204 -41 496
-93 649 -114 154 -22 282 -44 285 -49 53 -85 92 -123 169 -167 83 -47 83 -47
122 -128 34 -73 52 -95 179 -221 77 -77 141 -143 141 -146 0 -4 -26 0 -57 7
-32 7 -199 44 -372 81 l-314 67 -631 -38 c-347 -21 -642 -40 -656 -44 -14 -3
88 -11 225 -17 343 -16 926 -58 917 -66 -4 -3 -150 -35 -326 -70 l-318 -63
-97 17 c-53 10 -217 35 -366 57 -148 22 -283 43 -300 46 -61 13 -14 -7 170
-71 176 -61 193 -68 237 -112 l48 -48 -96 -48 c-53 -27 -94 -50 -93 -52 2 -2
45 4 94 12 135 24 365 23 435 -1 61 -21 134 -55 128 -61 -1 -2 -50 4 -108 12
-69 10 -194 16 -365 17 l-260 1 -200 67 c-413 138 -774 224 -1015 243 l-85 7
45 -25 c308 -165 520 -264 800 -372 168 -65 309 -122 315 -127 5 -4 -182 -8
-416 -8 -234 0 -549 -3 -700 -7 l-274 -7 180 -28 c99 -15 411 -50 694 -78 283
-27 516 -52 518 -53 2 -2 -45 -18 -104 -36 -215 -66 -921 -309 -899 -310 4 -1
270 35 590 80 626 86 1048 141 1053 136 1 -2 -71 -38 -162 -81 -237 -110 -266
-116 -549 -113 -242 2 -278 -2 -488 -49 -179 -40 -632 -185 -708 -225 l-35
-19 50 5 c28 3 230 21 450 40 220 20 449 40 509 45 60 6 110 9 113 7 2 -2
-120 -91 -272 -197 -151 -106 -274 -195 -272 -196 2 -2 84 31 183 72 98 42
303 120 454 174 151 54 289 103 305 110 59 22 6 -10 -330 -204 l-341 -196
-135 -152 c-124 -140 -395 -478 -383 -478 12 0 514 326 857 557 337 227 396
271 550 409 l172 154 7 -37 c3 -21 23 -161 45 -310 21 -150 40 -273 43 -273 3
0 20 44 36 97 l31 98 -12 185 c-6 102 -10 186 -10 188 1 1 34 -22 72 -52 38
-30 136 -98 219 -152 82 -54 194 -131 248 -173 55 -41 97 -68 94 -60 -3 8 -22
66 -43 129 l-38 115 -110 123 -110 123 79 74 c83 77 235 169 339 205 l55 19
20 -26 c23 -29 24 -59 6 -160 l-13 -71 110 -384 c60 -210 113 -387 117 -391 4
-4 26 47 50 115 37 105 47 150 66 305 14 119 20 211 17 265 -5 75 -3 85 15
101 20 18 22 18 84 -9 43 -19 98 -59 174 -126 62 -54 114 -98 117 -98 3 0 3 8
0 18 -2 10 4 28 14 41 17 21 22 22 63 11 53 -13 81 -36 138 -111 35 -46 59
-65 149 -114 126 -67 196 -119 276 -204 91 -96 64 -135 -67 -97 -68 20 -72 20
-54 -1 31 -37 28 -38 -90 -39 -96 -1 -128 -5 -177 -24 -65 -24 -98 -46 -55
-37 68 15 275 29 364 24 113 -6 211 -35 271 -81 78 -60 45 -81 -247 -157 -257
-67 -482 -136 -718 -221 -204 -73 -259 -97 -278 -121 -15 -18 2 -16 228 28 96
19 245 46 330 60 221 37 580 103 684 126 55 12 116 19 159 17 62 -3 72 -6 89
-29 28 -38 9 -69 -81 -131 -153 -104 -267 -192 -324 -247 -94 -91 -92 -95 25
-55 56 19 106 34 110 34 4 0 -32 -51 -81 -113 -102 -130 -168 -230 -199 -304
-12 -28 -46 -135 -76 -238 -30 -103 -62 -195 -72 -206 -33 -37 -84 -25 -268
60 -209 97 -297 132 -424 170 -151 45 -276 69 -806 157 -48 8 -90 13 -92 11
-2 -2 235 -102 526 -222 291 -121 527 -221 526 -223 -2 -2 -44 3 -92 10 -151
22 -665 16 -934 -10 -247 -25 -329 -37 -344 -52 -7 -7 12 -10 54 -10 36 0 220
-11 410 -25 190 -14 467 -27 615 -31 300 -6 359 -14 425 -52 l45 -27 -35 -2
c-19 -2 -162 7 -318 20 -252 20 -299 22 -418 11 -75 -7 -137 -14 -140 -16 -5
-6 153 -33 341 -59 367 -50 523 -89 474 -120 -22 -14 -59 -11 -140 11 -191 52
-309 80 -359 85 -53 6 -43 0 221 -142 221 -118 309 -160 442 -208 91 -33 165
-61 163 -62 -1 -2 -70 -7 -152 -13 -200 -14 -328 -34 -454 -70 -58 -17 -206
-48 -328 -70 -429 -77 -598 -111 -782 -156 -201 -49 -575 -169 -655 -209 l-50
-25 70 6 c39 3 160 19 269 35 110 16 371 45 580 64 686 64 883 97 1216 207
152 51 157 52 275 52 262 0 518 -15 595 -35 146 -39 398 -182 439 -250 14 -23
19 -61 24 -192 8 -188 22 -319 42 -397 11 -43 12 -59 2 -79 -17 -35 -38 -37
-102 -7 -30 14 -55 22 -55 19 0 -10 45 -68 100 -129 36 -40 64 -83 80 -125 30
-77 49 -89 143 -89 59 0 71 3 92 25 14 13 25 33 25 44 0 10 11 43 25 73 14 29
25 63 25 75 0 12 -21 52 -46 88 -31 46 -51 90 -64 140 -19 73 -40 236 -40 297
l1 33 29 -34 c16 -19 53 -79 82 -133 29 -55 76 -134 103 -176 83 -126 127
-200 180 -301 70 -134 75 -136 280 -136 242 0 247 5 201 214 -66 303 -72 397
-31 513 29 83 31 108 9 149 -16 32 -10 73 9 66 7 -2 118 -34 247 -71 608 -173
799 -237 844 -281 38 -39 4 -140 -127 -369 -54 -94 -97 -175 -97 -182 0 -41
119 -50 188 -15 51 26 69 51 137 197 72 152 91 180 170 239 36 27 65 51 65 54
0 2 -22 1 -50 -3 -27 -4 -50 -5 -50 -3 0 2 11 31 24 65 14 34 45 133 71 220
108 368 167 492 310 653 30 34 56 69 57 78 0 9 1 36 2 61 1 38 5 46 29 58 55
26 146 33 302 23 241 -16 402 -21 380 -12 -11 5 -78 14 -150 20 -116 9 -215
32 -215 50 0 3 27 17 61 30 33 13 58 25 56 27 -2 2 -45 -5 -97 -16 -51 -12
-97 -19 -102 -18 -13 5 219 153 286 182 l58 26 172 -35 c154 -32 223 -40 701
-75 292 -22 539 -40 550 -40 38 0 -6 19 -165 70 -235 74 -409 113 -625 140
-123 15 -377 30 -389 23 -5 -4 -6 -1 -2 5 13 21 95 24 204 8 162 -25 377 -36
692 -35 265 1 283 2 250 16 -119 52 -367 90 -650 100 -239 9 -188 20 96 22
222 1 282 6 1553 121 178 16 325 31 328 34 2 2 -40 12 -94 22 -88 17 -152 19
-628 18 -585 0 -717 -7 -1140 -59 -61 -8 -83 -28 223 199 134 98 241 180 240
182 -9 9 -515 -188 -703 -273 l-220 -101 -3 32 c-2 20 19 99 53 198 44 133 56
184 61 255 7 103 -12 216 -50 299 -14 30 -24 54 -22 54 1 0 180 -52 397 -115
217 -63 398 -115 403 -115 17 0 -38 51 -97 92 -77 52 -265 143 -451 216 -167
66 -219 100 -214 139 4 35 42 61 107 73 77 14 475 12 836 -5 171 -8 364 -14
430 -14 l120 1 -175 33 c-96 18 -368 58 -605 89 -236 31 -437 58 -445 59 -8 2
1 10 20 19 19 8 49 21 65 29 21 9 94 14 238 17 114 2 207 8 207 13 0 10 -47
18 -130 22 l-65 2 45 23 45 23 -70 -6 c-38 -4 -81 -9 -95 -12 -26 -5 -12 6
137 100 104 66 126 111 71 146 -20 12 -23 12 -33 -4 -25 -45 -93 -108 -166
-155 -94 -60 -270 -147 -316 -156 -33 -6 -33 -6 -33 33 0 71 80 170 201 249
84 55 228 114 294 121 73 8 104 -11 144 -89 18 -35 57 -93 86 -129 30 -36 62
-81 73 -99 l20 -32 6 29 c12 60 25 164 37 303 l12 145 130 80 c76 47 150 85
179 91 27 7 60 15 75 19 l26 6 -5 -88 c-5 -83 34 -578 46 -590 2 -3 27 16 54
41 71 66 105 144 137 306 14 74 39 184 54 243 l28 108 136 -130 c102 -99 142
-131 161 -131 26 0 30 7 26 44 -4 43 9 66 39 66 46 0 185 -44 331 -105 210
-88 375 -143 389 -130 9 9 -81 95 -164 157 -112 85 -290 168 -474 223 -156 47
-217 76 -245 116 -9 13 -14 24 -13 25 1 2 108 -10 237 -26 129 -17 240 -29
245 -29 12 0 -456 129 -470 129 -6 0 -48 38 -94 84 -84 84 -84 85 -71 115 7
17 17 31 23 31 5 0 109 -20 231 -45 195 -39 274 -50 664 -85 244 -22 454 -40
465 -40 17 1 13 6 -18 22 -113 59 -340 121 -620 168 -167 28 -282 56 -272 66
2 3 211 27 463 55 345 37 531 53 752 61 161 7 286 16 278 20 -23 13 -182 36
-371 54 -126 13 -268 18 -475 17 -435 0 -684 -30 -1031 -123 -102 -28 -203
-50 -223 -50 -65 0 -141 55 -117 84 13 15 96 31 216 42 39 3 171 23 295 45
289 49 471 75 644 90 152 14 153 22 4 38 -274 30 -675 23 -948 -15 -130 -19
-190 -14 -190 15 0 29 32 50 127 86 93 34 157 64 151 70 -2 2 -59 -9 -128 -25
-68 -16 -126 -27 -128 -25 -3 2 14 27 38 55 23 27 40 50 37 50 -3 0 -45 -18
-93 -40 l-88 -41 -32 33 c-39 41 -235 280 -231 284 1 1 164 -44 362 -102 305
-88 620 -163 633 -150 1 2 -34 35 -79 74 -76 65 -99 77 -373 200 -160 72 -322
145 -361 163 l-70 32 415 43 c228 23 427 43 443 43 16 1 27 7 27 15 0 10 -33
15 -152 20 -84 4 -223 11 -308 17 -197 11 -410 11 -525 -1 -49 -5 -90 -8 -92
-6 -2 1 59 27 134 56 76 30 142 57 146 61 19 15 -264 -23 -380 -52 -46 -11
-130 -38 -187 -60 -115 -43 -173 -49 -234 -23 -43 18 -88 58 -108 97 -50 96
-163 163 -406 242 -260 85 -421 119 -738 155 -353 40 -426 63 -617 192 -125
84 -195 116 -423 193 -174 59 -175 53 10 79 l95 13 -57 26 -57 25 -90 -29
c-50 -16 -95 -29 -100 -29 -6 0 2 26 16 57 21 45 27 77 31 153 4 96 -10 243
-30 312 -11 38 -62 107 -71 98 -3 -3 -24 -133 -46 -290 -23 -157 -45 -293 -49
-302 -6 -15 -22 -9 -127 48 -100 55 -150 75 -300 118 l-180 52 1 70 c2 69 2
70 102 239 l101 170 6 130 c7 149 39 336 63 378 16 28 19 28 72 22 30 -4 126
-29 213 -57 88 -27 161 -48 163 -46 2 2 -53 43 -121 91 -124 87 -273 206 -274
218 -2 18 182 89 437 169 367 116 383 126 82 53 -80 -20 -173 -38 -206 -40
-53 -5 -64 -3 -83 16 l-21 21 -92 -55 c-50 -30 -92 -54 -93 -53 -1 2 -6 23
-11 48 -9 38 -5 69 22 193 17 81 46 181 64 222 32 73 33 74 64 68 74 -15 170
-43 304 -90 78 -28 142 -49 142 -48 0 6 -281 214 -377 279 l-101 69 34 79 c19
44 34 81 34 82 0 1 14 12 30 24 l30 23 158 -109 c86 -60 162 -112 169 -115 6
-4 -33 70 -88 164 -55 94 -98 173 -97 175 2 1 77 -4 167 -12 l163 -14 139 -86
c116 -72 219 -121 610 -291 259 -113 473 -202 476 -199 4 3 -32 43 -78 89 -57
57 -133 116 -234 182 -304 198 -394 259 -391 263 2 2 115 -20 250 -50 l246
-53 37 -60 c96 -157 115 -175 403 -397 151 -116 366 -290 478 -386 112 -95
206 -172 208 -169 8 8 -24 134 -52 199 -91 220 -353 526 -579 678 -59 39 -105
73 -103 75 2 2 68 -6 146 -19 78 -12 139 -19 135 -15 -5 4 -43 22 -86 40 -42
17 -76 34 -74 36 2 2 82 -24 178 -58 96 -33 237 -83 314 -110 241 -84 1387
-390 1403 -375 14 15 -179 111 -391 195 -95 38 -271 110 -392 161 -491 207
-714 263 -1110 280 -201 9 -287 19 -302 34 -4 3 9 6 27 6 19 0 169 9 335 20
336 22 1282 70 1389 70 195 0 -96 60 -449 92 -210 19 -845 16 -1061 -5 -94 -9
-175 -17 -180 -17 -5 0 106 61 246 136 l255 135 -65 -6 c-90 -9 -282 -50 -371
-80 -41 -14 -129 -52 -196 -86 -134 -68 -194 -81 -253 -57 -49 21 -210 127
-210 139 0 19 53 29 203 36 184 8 162 14 -138 38 l-220 17 -275 104 c-151 57
-333 121 -405 143 -88 27 -136 47 -148 62 -10 12 -14 25 -10 29 22 20 173 41
398 55 138 9 293 20 345 24 l95 7 -65 12 c-116 21 -252 32 -425 33 -93 0 -163
3 -155 7 8 3 236 70 505 149 l490 144 -130 -5 c-71 -3 -213 -14 -315 -25 -321
-36 -399 -41 -480 -30 -108 15 -170 50 -170 98 0 44 189 279 254 315 23 13 72
40 109 61 38 20 67 38 65 39 -2 1 -36 0 -75 -3 -40 -4 -73 -5 -73 -4 0 2 52
73 115 159 103 140 202 244 232 244 33 0 314 -151 538 -288 143 -88 262 -159
263 -157 12 12 -66 123 -142 203 -128 133 -495 455 -631 551 l-60 43 55 -6
c265 -29 1284 -107 1372 -106 28 1 -49 43 -130 72 -129 45 -442 115 -742 165
-153 26 -247 30 -767 33 -19 0 -41 8 -53 20 -17 17 -19 28 -14 77 5 51 4 60
-15 77 -30 27 -102 29 -191 6z m-396 -337 c-86 -108 -104 -134 -177 -256 -43
-70 -77 -130 -77 -132 0 -2 96 52 213 121 l212 124 7 -63 c3 -34 7 -94 9 -134
2 -65 -1 -76 -30 -123 l-32 -52 12 -72 c11 -63 10 -84 -10 -190 -13 -69 -41
-165 -66 -230 l-43 -111 -103 4 c-57 2 -196 13 -308 25 l-205 21 -270 -26
-271 -26 -95 47 c-98 49 -187 70 -359 86 l-73 7 -81 164 c-44 90 -78 165 -76
167 2 2 81 -21 174 -50 94 -28 262 -80 375 -114 113 -34 245 -74 295 -90 49
-16 91 -27 93 -26 1 2 -121 85 -273 185 -151 100 -275 183 -275 185 0 4 284 1
833 -8 131 -2 236 -2 234 1 -3 2 -45 15 -94 29 -78 22 -714 124 -770 124 -38
0 -27 14 45 56 124 73 187 98 642 246 285 92 490 149 569 157 7 0 -4 -20 -25
-46z m569 -88 c20 -14 37 -29 37 -33 0 -58 -48 -235 -120 -445 -87 -252 -91
-259 -161 -357 -40 -55 -74 -98 -75 -97 -2 1 18 86 44 188 41 162 52 194 88
245 l41 59 -19 48 c-16 42 -17 57 -7 120 15 95 65 235 97 270 14 15 28 27 32
27 3 0 22 -11 43 -25z m227 -145 c30 -30 24 -67 -22 -150 -39 -71 -135 -180
-158 -180 -17 0 -2 68 26 116 13 23 47 62 76 88 52 45 53 46 24 46 -34 0 -66
25 -66 51 0 47 82 67 120 29z m-3024 -487 c30 -50 116 -310 112 -338 -2 -15
-11 -20 -33 -20 -26 0 -31 5 -47 49 -10 26 -41 74 -68 104 -95 107 -110 175
-54 249 25 33 26 34 46 16 11 -10 31 -37 44 -60z m-244 -140 c21 -22 27 -42
33 -98 3 -38 13 -96 21 -129 9 -32 12 -62 7 -67 -4 -4 -60 -27 -124 -51 -103
-38 -573 -277 -564 -286 2 -2 113 19 247 46 345 72 344 71 442 74 l89 3 23
-75 c24 -77 24 -130 -1 -130 -7 0 -59 5 -115 10 -56 6 -104 9 -106 7 -3 -2 37
-19 88 -37 119 -42 172 -72 187 -107 21 -51 42 -196 48 -335 7 -154 0 -176
-60 -203 -18 -8 -115 -52 -217 -99 -199 -91 -244 -105 -281 -86 -77 40 -91 87
-59 191 11 39 19 73 16 76 -3 3 -21 -4 -40 -15 -37 -22 -46 -20 -46 12 0 30
-89 109 -163 145 -37 17 -70 31 -73 31 -3 0 24 -43 60 -95 35 -52 62 -95 60
-95 -3 0 -101 65 -217 144 l-212 144 -332 138 c-183 76 -331 140 -329 141 9 9
779 -111 1166 -182 41 -7 76 -12 77 -11 2 1 -115 60 -260 131 -144 70 -264
130 -266 131 -2 2 22 43 54 91 56 85 65 94 309 281 219 168 463 329 502 331 5
1 22 -11 36 -26z m1143 -359 c20 -21 21 -20 -65 -150 -65 -99 -144 -194 -161
-194 -11 0 -59 117 -71 172 -11 52 -6 110 11 137 27 43 250 70 286 35z m885
-49 c80 -13 192 -27 250 -30 149 -8 168 -12 175 -36 11 -34 -31 -67 -172 -136
-137 -67 -195 -83 -231 -64 -30 16 -222 272 -222 296 0 2 12 2 28 0 15 -3 92
-16 172 -30z m-1510 -54 c14 -10 45 -52 70 -93 25 -41 76 -110 114 -154 120
-138 141 -217 73 -281 -30 -29 -106 -73 -126 -73 -5 0 -30 62 -56 138 -59 174
-56 170 -89 148 -22 -14 -33 -15 -66 -6 -22 6 -52 21 -67 35 -28 23 -28 24
-26 135 3 127 13 154 66 169 39 11 74 5 107 -18z m1205 -141 c124 -71 155 -96
155 -124 0 -24 -39 -46 -135 -76 -125 -39 -285 -161 -298 -229 -16 -79 -4
-160 40 -273 22 -58 24 -70 12 -84 -19 -23 -90 -14 -221 29 -58 20 -146 43
-194 52 -104 19 -154 38 -154 59 0 19 19 40 164 172 120 110 353 387 426 505
l35 56 40 -17 c22 -10 81 -41 130 -70z m-3295 -15 c235 -27 738 -142 775 -177
6 -6 5 -7 -5 -4 -51 17 -586 130 -740 156 -102 17 -189 32 -195 35 -22 8 46 4
165 -10z m188 -261 c134 -53 342 -167 329 -181 -2 -1 -83 29 -181 67 -98 39
-208 75 -244 81 -62 10 -70 15 -110 60 l-42 48 91 -25 c50 -13 121 -36 157
-50z m3902 16 c138 -28 408 -108 440 -131 12 -8 11 -9 -5 -5 -38 10 -280 68
-515 122 -219 51 -229 54 -150 49 47 -3 150 -19 230 -35z m-4476 14 c24 -24
20 -71 -9 -100 -63 -63 -166 -89 -405 -100 l-145 -6 35 27 c49 37 173 99 304
151 121 47 192 56 220 28z m2429 -35 c28 -22 61 -87 78 -155 18 -71 -28 -161
-102 -200 -28 -14 -28 -14 -33 18 -3 18 -10 98 -16 178 -12 143 -11 145 10
162 28 23 32 22 63 -3z m1822 -79 c39 -12 71 -24 73 -25 1 -1 -7 -23 -18 -49
l-20 -47 -51 43 c-59 50 -102 119 -66 106 6 -3 44 -15 82 -28z m-3966 -77 c36
-72 48 -191 21 -208 -4 -2 -15 42 -24 98 -10 56 -20 112 -23 125 -8 34 4 26
26 -15z m-313 -41 c-28 -54 -119 -133 -221 -192 -39 -22 -27 -10 180 182 48
45 61 48 41 10z m4858 -22 c93 -28 171 -52 173 -53 2 -2 -81 -21 -184 -41
-104 -21 -225 -46 -271 -56 -82 -17 -83 -17 -97 4 -20 27 -20 27 18 111 28 65
35 74 62 78 89 12 135 5 299 -43z m-4098 16 c179 -20 276 -45 389 -100 77 -37
204 -131 192 -142 -2 -2 -156 10 -342 26 -187 17 -344 30 -350 29 -5 0 127
-47 295 -103 l305 -103 -185 -7 c-102 -4 -234 -13 -295 -21 -139 -19 -216 -19
-240 -1 -17 12 -19 26 -17 137 1 68 -2 140 -7 159 -6 19 -16 54 -22 77 -11 34
-10 44 1 58 16 19 18 19 276 -9z m3169 -69 c22 -17 82 -71 133 -121 116 -114
119 -137 22 -186 -21 -11 -60 -44 -86 -75 -53 -61 -96 -81 -152 -70 -83 15
-162 81 -162 133 0 15 9 46 20 69 10 23 35 95 55 159 20 64 41 128 46 141 l9
25 38 -23 c20 -12 55 -36 77 -52z m-1185 -7 c8 -14 7 -29 -4 -54 -16 -39 -34
-51 -99 -66 -91 -20 -128 27 -67 85 58 56 149 74 170 35z m2735 -110 c98 -25
173 -62 226 -110 39 -35 41 -40 19 -35 -35 7 -716 105 -730 105 -50 0 93 49
185 64 56 8 225 -5 300 -24z m-2847 -192 c2 -14 -11 -75 -29 -135 -21 -72 -34
-140 -38 -206 -4 -71 -10 -100 -21 -107 -21 -13 -25 -13 -50 8 -16 13 -24 35
-31 87 -5 39 -13 88 -19 110 -18 74 -12 158 13 196 27 41 101 81 142 77 24 -2
31 -8 33 -30z m-360 -100 c15 -15 16 -102 2 -129 -18 -32 -66 -51 -114 -44
-42 7 -45 5 -111 -54 -72 -65 -108 -77 -137 -43 -21 24 -58 98 -58 117 0 21
48 49 145 84 44 17 107 41 140 55 65 28 114 33 133 14z m811 -82 c42 -44 141
-186 141 -201 0 -29 -43 -45 -120 -45 -69 0 -79 2 -101 26 -23 24 -24 34 -27
161 l-4 135 41 -23 c22 -12 53 -36 70 -53z m1051 14 c14 -14 20 -33 20 -66 0
-42 -1 -45 -22 -39 -54 17 -88 46 -88 75 0 48 54 66 90 30z m-595 -84 c28 -12
56 -30 63 -39 32 -38 -10 -75 -95 -85 -38 -4 -46 -1 -78 31 -36 36 -43 64 -25
98 15 27 72 25 135 -5z m-1746 -88 c17 -17 36 -47 42 -66 11 -32 10 -37 -10
-53 -52 -42 -298 -88 -316 -59 -7 11 64 137 92 162 33 30 77 48 119 48 34 0
48 -6 73 -32z m485 -15 c4 -21 9 -46 12 -56 5 -16 -3 -18 -95 -16 -56 1 -101
4 -101 8 0 6 159 99 171 100 4 1 10 -16 13 -36z m1762 -74 l42 -11 11 -78 c11
-76 11 -84 -28 -252 -39 -171 -84 -298 -94 -268 -5 13 -16 84 -34 226 -5 41
-5 42 28 49 53 11 53 14 -11 57 -105 70 -154 170 -111 228 11 16 21 34 21 39
0 5 -20 24 -45 42 -25 18 -45 36 -45 40 0 4 51 -8 113 -27 61 -19 131 -39 153
-45z m-306 -97 c14 -11 29 -31 35 -47 8 -23 6 -30 -14 -46 -32 -26 -85 -24
-148 5 -85 40 -84 96 0 114 48 10 90 1 127 -26z m-601 -153 c67 -10 121 -33
121 -50 0 -5 -17 -17 -37 -26 -29 -12 -58 -14 -123 -10 -112 8 -175 27 -175
52 0 42 84 56 214 34z m590 -50 c61 -10 93 -28 117 -64 19 -29 32 -145 16
-145 -6 0 -38 30 -71 68 -39 43 -61 61 -61 50 0 -14 -8 -18 -37 -18 -98 0
-239 35 -283 70 l-25 20 33 -6 c25 -5 32 -3 32 10 0 33 129 41 279 15z m-753
-201 l83 -61 -36 -66 c-21 -36 -70 -118 -111 -181 -98 -151 -218 -372 -247
-455 -12 -36 -25 -69 -29 -72 -3 -4 -6 181 -6 411 0 386 6 471 25 370 3 -20
15 -65 26 -100 l20 -65 39 28 c32 23 49 50 91 141 29 61 54 112 57 112 2 0 42
-28 88 -62z m252 -135 c4 -28 -125 -221 -171 -256 -46 -35 -97 -60 -97 -47 0
29 136 245 193 308 27 30 71 27 75 -5z m-770 -155 c29 -221 62 -521 57 -526
-11 -11 -60 182 -83 329 -24 155 -26 185 -18 272 5 53 12 97 15 97 4 0 16 -78
29 -172z m1234 30 c88 -23 156 -63 165 -96 8 -32 -12 -102 -62 -217 -71 -164
-74 -187 -53 -375 14 -129 2 -195 -78 -442 -30 -92 -54 -176 -54 -185 0 -10
-11 -41 -24 -70 -30 -64 -45 -68 -226 -61 -157 7 -185 18 -184 70 l1 37 -90
-61 -89 -62 -142 74 c-77 40 -146 77 -153 82 -6 5 -14 35 -18 66 -5 44 5 121
44 347 l50 290 57 116 57 117 251 91 c138 50 279 100 314 112 35 12 62 23 60
25 -2 2 -94 -19 -203 -45 -259 -63 -265 -65 -265 -53 0 25 85 113 147 154 168
111 306 135 495 86z m338 -1359 c30 -13 89 -45 130 -73 41 -28 99 -60 128 -72
l52 -21 -105 -47 c-116 -51 -127 -53 -145 -31 -16 19 -50 19 -50 0 0 -8 12
-37 27 -63 25 -45 26 -52 15 -88 -17 -57 -62 -106 -131 -143 l-61 -32 -9 23
c-5 13 -12 51 -16 85 -7 67 -30 107 -68 119 -28 8 -57 33 -57 49 0 6 18 36 40
65 38 50 40 58 40 122 0 70 10 102 39 126 22 18 103 9 171 -19z m-1249 -118
c50 -22 99 -47 110 -57 33 -30 24 -63 -31 -116 -56 -54 -70 -59 -70 -23 0 28
-38 58 -66 53 -14 -2 -20 6 -25 37 -13 78 -20 145 -15 145 3 0 47 -18 97 -39z
m482 -87 c92 -21 189 -65 211 -95 24 -34 20 -62 -19 -149 -19 -42 -58 -148
-86 -236 -28 -87 -58 -172 -66 -188 -26 -50 -62 -76 -106 -76 l-39 0 6 -52
c18 -165 18 -172 -3 -220 -11 -27 -26 -48 -33 -48 -7 0 -74 -7 -148 -14 -74
-8 -183 -17 -242 -21 l-108 -7 0 101 c0 84 8 137 45 303 25 111 45 225 45 254
0 103 3 108 106 171 52 32 94 61 94 64 0 4 -13 9 -30 13 -17 3 -30 12 -30 20
0 41 132 166 195 185 48 14 130 12 208 -5z m1239 -13 c31 -6 104 -33 163 -61
59 -28 166 -72 239 -97 72 -24 158 -56 191 -71 l60 -27 -45 -5 c-42 -5 -34 -8
110 -44 174 -44 870 -281 1115 -380 147 -59 157 -65 125 -70 -19 -3 -249 -17
-510 -31 -479 -26 -740 -47 -795 -64 l-30 -8 30 -13 c17 -7 109 -16 220 -21
105 -5 413 -27 685 -49 272 -22 559 -45 637 -52 117 -9 141 -13 132 -24 -6 -8
-106 -61 -223 -120 -199 -100 -274 -145 -389 -236 -77 -60 -168 -106 -249
-127 -43 -11 -165 -26 -289 -36 -226 -17 -331 -34 -401 -64 l-43 -18 75 -7
c41 -4 222 -15 402 -26 297 -18 572 -48 623 -69 14 -6 3 -11 -45 -20 -261 -51
-719 -190 -969 -296 -206 -87 -541 -258 -529 -271 2 -1 195 40 428 92 435 97
677 147 881 184 123 22 462 70 466 66 1 -1 -147 -95 -329 -209 -183 -114 -329
-207 -325 -207 5 0 103 31 220 69 245 80 630 205 667 216 l25 7 -25 -27 c-14
-14 -58 -51 -97 -81 -40 -30 -107 -79 -148 -110 -90 -68 -213 -194 -280 -289
-49 -68 -139 -235 -131 -242 7 -7 84 36 206 112 223 141 278 169 328 169 45 1
47 -1 59 -34 6 -19 12 -66 12 -104 1 -85 -12 -107 -113 -190 -72 -59 -259
-237 -254 -241 2 -1 56 13 122 32 65 19 120 32 122 30 2 -2 6 -17 9 -33 4 -25
-3 -38 -57 -96 l-63 -68 -95 10 c-52 5 -270 19 -485 31 -412 22 -520 20 -779
-16 l-98 -14 -137 70 -136 70 80 -6 c44 -3 139 -10 210 -15 163 -13 742 -29
1018 -30 191 0 208 1 205 17 -4 24 -92 51 -423 133 -493 122 -792 175 -1058
187 -81 3 -144 10 -140 14 29 29 190 92 473 184 362 118 402 133 397 149 -15
47 -468 -19 -921 -134 -65 -16 -129 -30 -143 -30 -34 0 -70 41 -78 86 -29 170
-79 278 -164 356 l-56 51 -10 -154 c-10 -145 -12 -157 -39 -196 -16 -24 -31
-43 -33 -43 -18 0 -80 45 -157 114 -97 88 -281 222 -411 301 -44 27 -81 50
-83 51 -4 2 -22 247 -19 250 1 1 56 -18 122 -43 252 -94 277 -102 265 -88 -6
8 -72 55 -147 106 -143 98 -189 138 -204 176 -13 36 -11 129 4 141 55 44 266
8 855 -147 95 -25 194 -47 352 -77 64 -12 -222 127 -415 201 -153 59 -278 98
-500 156 -206 53 -290 87 -301 121 -18 59 62 72 473 72 154 1 279 4 277 8 -15
25 -183 59 -448 93 -115 14 -224 32 -241 40 -57 23 -58 64 -1 162 18 32 57
103 87 158 73 135 177 243 264 274 91 33 104 42 114 78 6 21 41 67 89 117 49
52 89 106 106 142 47 99 78 120 201 134 33 4 60 8 60 9 0 0 26 -3 57 -8z
m-742 -171 c44 -24 59 -196 23 -265 -26 -49 -96 -116 -153 -145 l-42 -21 7 53
c9 75 31 159 61 236 14 37 30 80 36 95 11 27 34 57 44 57 3 0 14 -5 24 -10z
m3190 -1044 c0 -3 -17 -36 -37 -74 -28 -50 -59 -87 -114 -135 l-75 -66 -287
-3 c-157 -2 -283 0 -279 3 4 3 135 57 292 120 187 74 319 121 385 135 115 25
115 25 115 20z m-5870 -30 c0 -2 -42 -30 -92 -61 -51 -32 -149 -99 -216 -148
-68 -49 -160 -109 -203 -133 l-80 -43 -92 38 c-76 30 -413 219 -397 222 3 0
244 29 535 63 292 35 533 64 538 65 4 0 7 -1 7 -3z m6458 -50 c121 -62 170
-120 156 -185 -4 -20 -7 -63 -5 -97 3 -68 -10 -88 -56 -82 -26 3 -28 7 -28 43
0 22 4 50 8 63 7 18 5 22 -13 22 -73 0 -119 72 -120 188 0 39 2 72 5 72 3 0
27 -11 53 -24z m-5506 -56 l93 -50 -43 0 c-43 0 -71 -19 -98 -65 -9 -17 -14
-7 -29 60 -9 44 -20 85 -22 92 -8 20 -1 17 99 -37z m5281 41 c29 -11 92 -104
114 -167 8 -25 13 -47 11 -49 -3 -3 -42 9 -87 25 -79 29 -154 41 -168 27 -3
-4 4 -18 17 -32 24 -26 103 -55 149 -55 26 0 91 -54 91 -77 0 -25 -41 -36
-110 -29 -86 8 -245 48 -299 75 -73 38 -53 73 113 197 136 102 131 99 169 85z
m-6013 -223 c-18 -73 -43 -154 -56 -180 l-24 -47 -92 31 c-51 17 -95 33 -98
35 -2 2 63 71 145 153 82 82 151 147 153 145 3 -2 -10 -64 -28 -137z m-1840
-52 c91 -19 219 -46 285 -60 161 -34 259 -45 455 -51 179 -6 200 -9 200 -30 0
-36 -79 -47 -225 -29 -66 7 -196 14 -290 14 -285 0 -479 46 -590 138 -76 63
-60 64 165 18z m3285 -40 c31 -16 57 -47 112 -131 99 -152 137 -200 185 -235
23 -17 43 -29 44 -27 2 2 -1 69 -8 150 -6 81 -8 150 -5 153 12 12 87 -18 106
-43 25 -31 28 -126 9 -355 l-11 -147 -49 26 c-52 28 -419 362 -481 436 -44 55
-57 85 -57 137 0 72 62 86 155 36z m-635 -75 c58 -35 271 -235 277 -260 3 -13
0 -38 -7 -55 -23 -54 -22 -155 4 -368 28 -226 33 -408 13 -448 -17 -35 -61
-53 -128 -54 -81 -1 -111 30 -154 164 -10 30 -42 107 -71 170 -55 120 -72 170
-58 170 5 0 57 -16 117 -34 59 -19 107 -31 107 -28 0 4 -57 47 -125 96 -193
138 -242 201 -265 339 -11 72 -14 277 -2 277 4 -1 51 -58 106 -127 l99 -126
18 24 c16 20 19 43 19 152 0 76 4 127 10 127 5 0 23 -8 40 -19z m-1046 -271
c94 -36 131 -94 86 -135 -11 -10 -21 -16 -23 -14 -2 2 -27 36 -57 74 -75 97
-73 95 -67 95 4 0 31 -9 61 -20z m6526 -167 c69 -98 135 -163 165 -163 25 0
45 77 45 171 l0 90 73 -57 c99 -79 156 -134 174 -168 13 -25 13 -30 0 -43 -20
-21 -370 -103 -448 -106 -86 -3 -99 9 -139 127 -32 98 -36 129 -19 173 10 27
57 83 68 83 3 0 40 -48 81 -107z m-7560 -20 c-40 -43 -84 -84 -99 -92 -50 -28
-171 -11 -185 26 -11 26 13 52 77 81 77 37 254 78 276 65 2 -1 -29 -37 -69
-80z m2813 -57 c107 -52 205 -106 251 -141 42 -32 76 -59 76 -61 0 -2 -14 -66
-31 -142 -23 -105 -29 -150 -24 -193 l6 -56 -58 -11 c-39 -8 -114 -9 -228 -4
l-170 7 -13 60 c-14 70 -16 158 -7 380 5 154 13 245 19 245 2 0 82 -38 179
-84z m-1296 33 c54 -17 129 -47 166 -67 77 -39 101 -69 160 -196 21 -44 60
-120 88 -169 59 -105 99 -204 99 -247 l0 -31 -32 17 c-50 26 -125 102 -205
207 -71 94 -130 148 -176 163 -40 13 -95 55 -120 92 -96 144 -148 234 -143
247 8 23 55 18 163 -16z m-229 -26 c30 -26 163 -253 148 -253 -11 0 -82 34
-135 65 -88 52 -131 97 -131 140 0 58 72 87 118 48z m2165 -52 c57 -40 109
-95 221 -236 60 -75 96 -129 96 -144 0 -23 -2 -24 -62 -19 -83 7 -203 56 -249
101 -36 36 -57 90 -60 152 -3 67 1 175 7 175 3 0 24 -13 47 -29z m3544 -68
c-2 -5 -17 -62 -32 -128 l-28 -120 -58 -57 -57 -56 -7 51 c-24 172 1 239 110
295 40 21 80 29 72 15z m-3210 -447 c125 -52 233 -102 241 -110 61 -60 -319
-92 -445 -37 -74 33 -95 60 -104 133 -16 139 6 140 308 14z m-1413 -227 c54
-64 18 -138 -70 -146 -47 -5 -52 -3 -77 27 -42 49 -33 120 16 140 12 5 41 9
64 9 34 1 46 -4 67 -30z m578 -14 c131 -20 148 -24 148 -40 0 -19 -72 -44
-162 -56 -97 -14 -262 3 -290 28 -23 21 -23 59 0 72 26 15 189 13 304 -4z
m582 -172 c-4 -10 -10 -80 -13 -156 -5 -122 -8 -140 -25 -153 -21 -15 -52 -10
-75 12 -17 16 -26 114 -17 179 8 52 45 101 91 121 41 18 49 17 39 -3z m1026
-179 c30 -9 66 -29 83 -46 l30 -29 -7 -91 c-3 -50 -8 -94 -11 -96 -6 -7 -585
90 -585 97 1 17 210 137 290 167 49 18 136 17 200 -2z m-1446 -20 c39 -38 8
-85 -71 -107 -71 -20 -206 -37 -290 -37 -89 0 -83 19 22 69 167 80 304 110
339 75z m2447 -95 c101 -45 551 -209 575 -209 2 0 4 -22 4 -48 0 -47 -3 -52
-87 -145 -49 -52 -91 -96 -94 -96 -3 -1 9 52 27 116 18 65 32 118 31 120 -2 1
-32 -16 -67 -39 l-64 -40 -22 27 -21 27 -5 -46 c-3 -25 -11 -53 -18 -61 -9
-11 -12 -61 -11 -183 l1 -167 -39 -44 -38 -45 -59 33 c-64 36 -436 293 -431
297 2 2 79 -19 171 -47 93 -27 170 -48 172 -46 2 2 -58 46 -134 98 l-137 94 0
43 c0 23 -3 42 -7 42 -5 0 -8 -4 -8 -8 0 -5 -6 -16 -13 -26 -13 -18 -17 -17
-69 16 -48 31 -63 50 -126 157 -39 66 -68 121 -65 121 3 0 110 -40 237 -89
209 -81 325 -121 348 -121 5 0 0 17 -11 38 -11 21 -67 78 -131 132 -94 81
-150 143 -150 167 0 3 24 3 53 -1 34 -3 104 -29 188 -67z m736 35 c22 -6 22
-7 6 -34 l-16 -28 -100 34 c-55 19 -103 37 -106 40 -7 8 183 -3 216 -12z
m-3239 -228 c52 -18 52 -40 -1 -91 -53 -51 -233 -154 -282 -162 -29 -5 -39 -1
-62 24 -35 37 -83 133 -83 166 0 39 40 67 111 77 81 11 267 3 317 -14z m-735
-76 c32 -28 34 -34 44 -122 6 -57 6 -148 1 -237 l-9 -144 -77 -81 c-42 -45
-115 -128 -161 -186 -46 -58 -90 -112 -98 -120 -13 -13 -14 4 -8 125 6 139 7
142 98 448 l91 308 35 19 c47 25 45 25 84 -10z m3967 -66 c7 -19 9 -51 5 -71
-6 -35 -84 -240 -173 -458 -64 -156 -72 -193 -65 -291 7 -99 -4 -133 -61 -198
l-43 -49 -52 109 c-43 89 -55 126 -65 202 l-13 93 133 183 c73 101 142 208
155 237 26 62 151 278 161 279 3 0 12 -16 18 -36z m-1767 -20 c105 -25 255
-66 331 -91 l139 -46 90 -81 c49 -44 105 -94 124 -110 l35 -29 -7 49 c-4 27
-5 47 -2 44 60 -59 193 -243 252 -347 l74 -132 -21 -73 c-16 -56 -43 -108
-121 -228 -134 -207 -137 -209 -68 -56 17 38 30 70 28 72 -2 2 -27 -6 -56 -19
l-53 -22 -44 48 -44 49 0 -71 c0 -39 -3 -71 -6 -71 -4 0 -37 25 -75 55 -37 30
-70 55 -73 55 -2 0 30 -75 72 -167 41 -92 75 -172 75 -178 0 -5 -19 -42 -42
-81 -25 -44 -63 -138 -96 -239 -30 -92 -107 -292 -172 -445 l-117 -278 -51 20
c-63 25 -147 71 -349 192 -161 97 -316 165 -574 251 -62 21 -124 49 -138 62
-24 22 -25 26 -11 46 8 12 32 28 53 36 35 12 78 9 444 -32 223 -25 407 -44
409 -42 1 2 -38 25 -89 50 -115 58 -406 155 -570 190 -157 34 -197 50 -215 86
-20 38 -19 118 4 230 11 52 25 146 31 209 8 88 20 143 50 231 22 63 40 121 40
129 0 7 -12 29 -26 48 -41 53 -43 109 -8 179 40 80 190 235 260 269 96 47 134
26 271 -152 83 -107 250 -268 341 -328 40 -27 74 -47 76 -45 2 2 -35 121 -82
264 l-84 260 -97 130 c-107 143 -115 155 -106 155 3 0 92 -21 198 -46z m-1008
-10 l27 -47 -5 -261 c-5 -229 -8 -269 -26 -325 l-21 -63 23 -77 c21 -72 22
-85 14 -264 -6 -152 -14 -219 -42 -350 l-33 -162 -1 361 -1 361 -35 94 c-35
94 -35 94 -35 265 0 94 5 229 10 300 l11 129 42 43 c22 23 42 42 43 42 1 0 14
-21 29 -46z m-433 -477 c-63 -300 -68 -317 -89 -317 -18 0 -24 8 -29 38 -10
51 -10 120 -2 162 7 33 5 36 -41 68 -47 32 -48 33 -70 128 -12 53 -20 98 -18
101 6 6 312 141 314 139 1 -1 -28 -145 -65 -319z m-381 51 c6 -12 13 -57 16
-102 4 -70 10 -89 39 -138 19 -31 57 -127 85 -215 72 -226 137 -419 165 -486
62 -147 43 -184 -107 -212 -148 -28 -201 -6 -185 77 19 102 19 104 -18 214
-40 124 -52 172 -72 299 -17 110 -29 498 -16 540 9 32 45 57 69 48 7 -3 18
-14 24 -25z m-323 -450 c2 -288 0 -325 -18 -408 l-20 -92 40 -73 c39 -70 40
-75 40 -168 l0 -96 -67 72 c-100 106 -175 210 -198 275 -12 31 -25 56 -31 56
-5 -1 -23 -5 -40 -8 -28 -6 -32 -4 -44 23 -18 45 -7 70 65 156 117 137 224
399 225 548 0 34 3 38 23 35 l22 -3 3 -317z m3364 -48 c36 -27 71 -115 64
-154 -4 -18 -21 -46 -39 -63 -47 -45 -205 -144 -253 -159 -42 -13 -74 -4 -74
20 0 7 35 69 79 137 43 69 88 144 100 166 36 71 78 89 123 53z m-4308 -392
c47 -33 350 -268 390 -301 l21 -19 -30 7 c-58 12 -151 63 -240 130 -49 38
-126 91 -170 118 -91 56 -101 67 -78 85 27 20 58 14 107 -20z m484 15 c70 -33
382 -364 382 -405 0 -7 -18 -8 -47 -4 l-48 7 80 -45 c71 -41 155 -115 155
-137 0 -12 -68 18 -118 52 -63 43 -115 68 -186 89 -90 28 -113 50 -162 157
-25 54 -62 113 -87 141 -83 89 -99 134 -54 152 32 13 45 12 85 -7z m1061 -625
c69 -28 129 -54 133 -57 3 -3 2 -61 -4 -127 l-10 -122 46 -81 c42 -73 50 -99
91 -292 25 -117 44 -213 42 -215 -1 -1 -38 76 -81 172 -78 174 -79 175 -156
247 -93 86 -222 267 -280 394 -37 78 -39 90 -29 116 12 29 14 29 67 23 30 -4
111 -30 181 -58z"/>
<path d="M8290 3056 c0 -8 5 -18 10 -21 6 -3 10 1 10 9 0 8 -4 18 -10 21 -5 3
-10 -1 -10 -9z"/>
</g>
</svg>
